<svg width="120" height="75" viewBox="0 0 120 75" fill="none" xmlns="http://www.w3.org/2000/svg">
<path d="M87.4388 0C84.8237 2.01479 83.1846 4.8948 83.1846 8.09446C83.1849 13.2058 87.3646 17.5023 93.033 18.7531C91.4592 21.6282 91.0826 24.7657 92.2759 27.5298C94.3004 32.2185 100.205 34.3667 106.493 33.1494C106.54 33.2748 106.587 33.4011 106.641 33.5252C108.618 38.105 114.18 40.283 120 39.174V62.384C120 69.3514 114.344 75 107.368 75H12.6316C5.65551 75 0.000263818 69.3514 0 62.384V12.616C8.61674e-06 5.64839 5.65536 5.07998e-08 12.6316 0H87.4388ZM11.9948 52.2059C10.251 52.2062 8.83702 53.6183 8.83686 55.3599V60.8162C8.83686 62.5579 10.251 63.9699 11.9948 63.9702H18.1949C19.9389 63.9702 21.3528 62.5581 21.3528 60.8162V55.3599C21.3526 53.6181 19.9388 52.2059 18.1949 52.2059H11.9948ZM11.9948 30.8794C10.2511 30.8797 8.83706 32.2918 8.83686 34.0334V39.4897C8.83686 41.2315 10.251 42.6434 11.9948 42.6437H18.1949C19.9389 42.6437 21.3528 41.2316 21.3528 39.4897V34.0334C21.3526 32.2916 19.9388 30.8794 18.1949 30.8794H11.9948ZM11.9948 9.56058C10.251 9.56087 8.83686 10.9729 8.83686 12.7146V18.1709C8.8371 19.9125 10.2511 21.3247 11.9948 21.3249H18.1949C19.9388 21.3249 21.3526 19.9126 21.3528 18.1709V12.7146C21.3528 10.9727 19.9389 9.5606 18.1949 9.56058H11.9948Z" fill="#09D2D2"/>
</svg>
