<svg width="120" height="76" viewBox="0 0 120 76" fill="none" xmlns="http://www.w3.org/2000/svg">
<path d="M87.4388 0.5C84.8237 2.51479 83.1846 5.3948 83.1846 8.59446C83.1849 13.7058 87.3646 18.0023 93.033 19.2531C91.4591 22.1282 91.0826 25.2657 92.2759 28.0298C94.3004 32.7185 100.205 34.8667 106.493 33.6494C106.54 33.7748 106.587 33.9011 106.641 34.0252C108.618 38.605 114.18 40.783 120 39.674V62.884C120 69.8514 114.344 75.5 107.368 75.5H12.6316C5.65551 75.5 0.000263818 69.8514 0 62.884V13.116C8.61674e-06 6.14839 5.65536 0.5 12.6316 0.5H87.4388ZM11.9948 52.7059C10.251 52.7061 8.83702 54.1183 8.83686 55.8599V61.3162C8.83686 63.0579 10.251 64.4699 11.9948 64.4702H18.1949C19.9389 64.4702 21.3528 63.0581 21.3528 61.3162V55.8599C21.3526 54.1181 19.9388 52.7059 18.1949 52.7059H11.9948ZM11.9948 31.3794C10.2511 31.3797 8.83706 32.7918 8.83686 34.5334V39.9897C8.83686 41.7315 10.251 43.1434 11.9948 43.1437H18.1949C19.9389 43.1437 21.3528 41.7316 21.3528 39.9897V34.5334C21.3526 32.7917 19.9388 31.3794 18.1949 31.3794H11.9948ZM11.9948 10.0606C10.251 10.0609 8.83686 11.4729 8.83686 13.2146V18.6709C8.8371 20.4125 10.2511 21.8247 11.9948 21.8249H18.1949C19.9388 21.8249 21.3526 20.4126 21.3528 18.6709V13.2146C21.3528 11.4727 19.9389 10.0606 18.1949 10.0606H11.9948Z" fill="white"/>
</svg>
